<svg width="64" height="64" viewBox="0 0 64 64" fill="none" xmlns="http://www.w3.org/2000/svg">
<g clip-path="url(#clip0_1033_22)">
<path d="M48 0H16C7.16344 0 0 7.16344 0 16V48C0 56.8366 7.16344 64 16 64H48C56.8366 64 64 56.8366 64 48V16C64 7.16344 56.8366 0 48 0Z" fill="white"/>
<path d="M52 6H12V14.8277V15.6578H26.6194V58H26.6786H37.3214H37.3806V15.6578H52V6Z" fill="black"/>
<rect x="1.33447" y="31.3582" width="58.6019" height="20.6337" rx="10" transform="rotate(-10.1807 1.33447 31.3582)" fill="#E6007E"/>
<path fill-rule="evenodd" clip-rule="evenodd" d="M23.9598 39.8975C24.5401 42.488 23.6655 44.2257 21.3503 44.7047L21.3533 44.6984C19.3273 45.119 18.3693 44.1902 18.1749 43.3309L19.4688 43.0641C19.5679 43.4999 20.1744 43.8788 21.1235 43.6819C22.5716 43.3809 23.1984 42.1843 22.7177 40.0455L22.6462 39.7258C22.3028 40.5418 21.6484 41.1829 20.7487 41.3685C18.7948 41.7738 17.1055 40.7681 16.6286 38.6418C16.1353 36.4276 17.3429 34.9148 19.2179 34.5251C20.1638 34.3315 21.0368 34.6659 21.7022 35.2893L21.5684 34.1906L22.6355 33.97L23.9598 39.8975ZM22.1488 37.4956C21.906 36.4041 21.1096 35.1977 19.6121 35.5069C18.3315 35.7731 17.6329 36.9976 17.939 38.3681C18.2451 39.7355 19.3295 40.5932 20.6891 40.3145C22.0618 40.029 22.3816 38.6664 22.1689 37.5833L22.1488 37.4956Z" fill="white"/>
<path fill-rule="evenodd" clip-rule="evenodd" d="M15.8522 42.9911L14.7846 43.2113L14.372 41.9998C14.0359 42.9233 13.3715 43.6533 12.3502 43.8655C10.3963 44.2708 8.64006 42.9738 8.14227 40.7313L8.13589 40.7346C7.63482 38.4923 8.69928 36.7005 10.6532 36.2982C11.691 36.0854 12.6055 36.4587 13.3 37.1537L13.1546 35.9322L14.2223 35.7121L15.8522 42.9911ZM13.5953 39.5685C13.2297 37.9376 12.1951 37.0087 10.8356 37.2906C9.47621 37.5725 8.86846 38.8413 9.23403 40.472C9.59965 42.1028 10.7162 43.1045 12.0725 42.826L12.0758 42.8259C13.4023 42.5485 13.9271 41.267 13.6268 39.7002L13.5953 39.5685Z" fill="white"/>
<path fill-rule="evenodd" clip-rule="evenodd" d="M27.8842 32.7295C30.1401 32.2591 31.6126 33.4911 32.0461 35.4292L32.1458 35.8809L26.4579 37.0587C26.8855 38.7536 27.9584 39.5641 29.41 39.2662C30.3557 39.0726 30.6935 38.7248 30.8902 38.3222C31.0278 38.0198 31.0514 37.6806 31.008 37.4924L32.3024 37.2255C32.3938 37.6332 32.3168 38.1519 32.1154 38.6053L32.112 38.6019C31.7823 39.3416 31.115 39.9836 29.634 40.2891C27.3779 40.7563 25.6182 39.4622 25.1204 37.2196C24.6194 34.9772 25.625 33.2 27.8842 32.7295ZM30.605 35.208C30.3529 34.2245 29.6016 33.4367 28.1075 33.7457C26.6889 34.0392 26.117 35.1171 26.306 36.0999L30.605 35.208Z" fill="white"/>
<path d="M36.616 30.919C38.5371 30.5212 39.9416 31.5248 40.3794 33.4914L41.3223 37.7126L40.1038 37.9673L39.1614 33.7456C38.9379 32.8179 38.1697 31.664 36.5542 31.9997C35.0896 32.3044 34.746 33.8225 34.9157 34.7302L35.8381 38.8513L34.6196 39.106L32.9901 31.8265L32.9899 31.8203L34.057 31.6001L34.4529 32.7993C34.7917 31.9518 35.4405 31.1623 36.616 30.919Z" fill="white"/>
<path d="M54.5253 34.9375L54.5115 35.0168C54.1694 36.8386 53.7317 37.8734 52.0832 38.2167L51.338 38.3714L51.0755 37.1921L51.7745 37.0454C52.6742 36.8567 53.0523 35.9887 53.1952 35.1199L48.4487 28.6569L49.821 28.371L53.5731 33.7334L54.585 27.4488L55.7747 27.4042L54.5253 34.9375Z" fill="white"/>
<path d="M44.77 29.2248C45.8701 28.997 46.7829 29.2504 47.4076 29.7583C47.8586 30.1366 48.162 30.6376 48.2892 31.2052L46.9954 31.472C46.9077 31.0769 46.7198 30.739 46.4134 30.5102C46.0661 30.2481 45.5747 30.1211 44.9213 30.2562C43.716 30.5038 42.9385 31.6592 43.3327 33.4344C43.7269 35.2095 44.9493 36.0397 46.1577 35.789C46.8111 35.6538 47.2067 35.3416 47.4203 34.9478C47.5994 34.6059 47.6379 34.2184 47.5503 33.8232L48.8442 33.5564L48.8508 33.5592C48.9862 34.1708 48.9458 34.761 48.6901 35.2671C48.327 35.9986 47.5603 36.5681 46.4635 36.7959C44.3914 37.2245 42.5587 36.0977 42.0255 33.708C41.4926 31.3213 42.6978 29.6536 44.77 29.2248Z" fill="white"/>
</g>
<defs>
<clipPath id="clip0_1033_22">
<rect width="64" height="64" fill="white"/>
</clipPath>
</defs>
</svg>
