<svg width="64" height="64" viewBox="0 0 64 64" fill="none" xmlns="http://www.w3.org/2000/svg">
<g clip-path="url(#clip0_1033_41)">
<path d="M48 0H16C7.16344 0 0 7.16344 0 16V48C0 56.8366 7.16344 64 16 64H48C56.8366 64 64 56.8366 64 48V16C64 7.16344 56.8366 0 48 0Z" fill="black"/>
<path d="M48 11H16V18.13V18.8005H27.6955V53H27.7429H36.2571H36.3045V18.8005H48V11Z" fill="white"/>
<rect x="11" y="32.093" width="40.1292" height="14.1295" rx="7.06473" transform="rotate(-10.1807 11 32.093)" fill="#E6007E"/>
<path fill-rule="evenodd" clip-rule="evenodd" d="M26.4934 37.9407C26.8908 39.7147 26.2919 40.9046 24.7065 41.2326L24.7086 41.2282C23.3212 41.5163 22.6652 40.8803 22.5321 40.2919L23.4181 40.1091C23.486 40.4076 23.9013 40.6671 24.5512 40.5322C25.5428 40.3261 25.972 39.5067 25.6429 38.0421L25.5939 37.8231C25.3588 38.382 24.9107 38.821 24.2945 38.948C22.9565 39.2256 21.7998 38.5369 21.4732 37.0809C21.1354 35.5646 21.9623 34.5287 23.2463 34.2618C23.894 34.1293 24.4919 34.3583 24.9475 34.7851L24.8559 34.0328L25.5866 33.8817L26.4934 37.9407ZM25.2534 36.296C25.0871 35.5486 24.5417 34.7224 23.5163 34.9341C22.6393 35.1164 22.1609 35.9549 22.3705 36.8934C22.5802 37.8298 23.3227 38.4171 24.2538 38.2263C25.1937 38.0308 25.4127 37.0977 25.2671 36.356L25.2534 36.296Z" fill="white"/>
<path fill-rule="evenodd" clip-rule="evenodd" d="M20.9415 40.0592L20.2105 40.2099L19.9279 39.3804C19.6978 40.0127 19.2428 40.5126 18.5435 40.658C17.2055 40.9355 16.0028 40.0473 15.662 38.5117L15.6576 38.514C15.3145 36.9785 16.0434 35.7515 17.3814 35.476C18.092 35.3303 18.7183 35.5859 19.1939 36.0618L19.0943 35.2254L19.8254 35.0747L20.9415 40.0592ZM19.3961 37.7154C19.1457 36.5987 18.4373 35.9626 17.5063 36.1556C16.5754 36.3487 16.1592 37.2175 16.4096 38.3341C16.6599 39.4509 17.4245 40.1368 18.3533 39.9461L18.3555 39.946C19.2639 39.7561 19.6233 38.8786 19.4177 37.8057L19.3961 37.7154Z" fill="white"/>
<path fill-rule="evenodd" clip-rule="evenodd" d="M29.1808 33.0322C30.7256 32.7101 31.7339 33.5538 32.0307 34.881L32.0991 35.1902L28.2041 35.9968C28.4969 37.1574 29.2316 37.7124 30.2256 37.5084C30.8733 37.3759 31.1045 37.1377 31.2392 36.862C31.3334 36.6549 31.3496 36.4226 31.3199 36.2938L32.2062 36.111C32.2688 36.3902 32.2161 36.7454 32.0782 37.0559L32.0759 37.0535C31.8501 37.5601 31.3932 37.9997 30.379 38.2089C28.8341 38.5288 27.6291 37.6426 27.2882 36.107C26.9451 34.5714 27.6337 33.3545 29.1808 33.0322ZM31.0439 34.7295C30.8713 34.056 30.3568 33.5165 29.3337 33.7281C28.3623 33.9291 27.9707 34.6672 28.1001 35.3402L31.0439 34.7295Z" fill="white"/>
<path d="M35.1601 31.7924C36.4757 31.52 37.4374 32.2073 37.7372 33.554L38.3829 36.4446L37.5485 36.619L36.9031 33.7281C36.7501 33.0928 36.2241 32.3026 35.1178 32.5325C34.1149 32.7412 33.8796 33.7807 33.9958 34.4023L34.6274 37.2243L33.793 37.3987L32.6772 32.4139L32.677 32.4096L33.4078 32.2589L33.6789 33.0801C33.9109 32.4997 34.3552 31.9591 35.1601 31.7924Z" fill="white"/>
<path d="M47.424 34.5443L47.4146 34.5985C47.1803 35.8461 46.8806 36.5547 45.7518 36.7898L45.2414 36.8957L45.0617 36.0881L45.5404 35.9877C46.1565 35.8584 46.4154 35.2641 46.5132 34.6692L43.2629 30.2434L44.2026 30.0477L46.772 33.7197L47.4649 29.4162L48.2796 29.3856L47.424 34.5443Z" fill="white"/>
<path d="M40.7438 30.6323C41.4971 30.4763 42.1222 30.6499 42.55 30.9976C42.8588 31.2567 43.0666 31.5998 43.1537 31.9884L42.2677 32.1712C42.2077 31.9006 42.079 31.6692 41.8692 31.5125C41.6313 31.333 41.2949 31.2461 40.8474 31.3386C40.0221 31.5081 39.4896 32.2993 39.7596 33.515C40.0295 34.7305 40.8666 35.299 41.6941 35.1273C42.1415 35.0347 42.4124 34.821 42.5587 34.5513C42.6813 34.3172 42.7077 34.0518 42.6477 33.7812L43.5337 33.5985L43.5382 33.6004C43.631 34.0192 43.6033 34.4234 43.4282 34.7699C43.1795 35.2708 42.6545 35.6609 41.9035 35.8168C40.4846 36.1103 39.2295 35.3387 38.8645 33.7023C38.4995 32.0679 39.3248 30.9259 40.7438 30.6323Z" fill="white"/>
</g>
<defs>
<clipPath id="clip0_1033_41">
<rect width="64" height="64" fill="white"/>
</clipPath>
</defs>
</svg>
