<svg width="230" height="60" viewBox="0 0 230 60" fill="none" xmlns="http://www.w3.org/2000/svg">
<g clip-path="url(#clip0_904_56)">
<path d="M53.8798 51.3398C48.8481 51.3398 46.0786 47.873 46.0786 41.5827C46.0786 33.7078 50.0586 22.0599 58.6053 22.0599C62.9963 22.0599 65.5702 24.3163 66.2903 28.7754L77.0453 26.8789C75.1913 18.3747 68.8982 13.4536 59.4245 13.4536C41.577 13.4536 34.9268 30.6888 34.9268 41.5515C34.9268 53.2448 41.4467 59.9489 52.8168 59.9489C64.1869 59.9489 71.3503 53.2278 74.8115 45.4918L61.2756 47.8786C59.4019 49.9792 56.9668 51.3427 53.8798 51.3427V51.3398Z" fill="black"/>
<path d="M207.854 13.4508C193.989 13.4508 185.95 23.31 185.95 36.8204C185.95 50.3307 193.876 59.9461 207.298 59.9461C220.721 59.9461 229.01 49.8346 229.01 36.6106C229.01 22.6807 220.678 13.4508 207.851 13.4508H207.854ZM207.585 51.4022C200.968 51.4022 196.892 45.6506 196.892 36.6985C196.892 27.0547 200.832 21.9947 207.412 21.9947C213.991 21.9947 218.07 27.2276 218.07 36.758C218.07 45.7696 214.311 51.3994 207.585 51.3994V51.4022Z" fill="black"/>
<path d="M59.4473 41.373C60.5925 41.1689 61.0829 40.0378 60.876 38.6233L60.8533 38.5042C60.5925 37.0302 59.7364 36.1627 58.5629 36.3697C57.3893 36.5766 56.828 37.6935 57.0888 39.1676C57.3496 40.6416 58.2737 41.5771 59.4445 41.373H59.4473Z" fill="#E6007E"/>
<path d="M99.2952 40.7068C101.934 39.2809 103.709 36.5992 103.967 33.5887C101.486 32.8574 99.1024 31.9106 97.033 30.5754L96.0607 35.729L96.0465 35.7998C95.695 37.4213 95.2868 38.3341 93.8638 38.5864L93.2203 38.6998L93.0332 37.6339L93.637 37.5262C94.4137 37.3873 94.7652 36.6219 94.9155 35.848L91.0574 29.8951L92.2423 29.6853L95.284 34.6178L96.0919 29.9291C94.1813 28.5117 92.5967 26.6975 91.5365 24.3248L77.0481 26.8789L66.2932 28.7754L56.6239 30.479C51.7453 31.338 48.4882 35.9926 49.3471 40.8712C50.206 45.7498 54.8607 49.0069 59.7393 48.1479L61.2785 47.8758L74.8144 45.489L88.1405 43.139C88.0299 42.3254 87.9732 41.5118 87.9732 40.7039H99.3008L99.2952 40.7068ZM91.2445 34.3031C91.3409 34.8559 91.287 35.3831 91.0517 35.8282C90.7172 36.4717 90.0426 36.9564 89.0958 37.1237C87.3071 37.4383 85.7735 36.3668 85.3936 34.2067C85.0138 32.0495 86.0995 30.5953 87.8882 30.2806C88.8378 30.1134 89.6117 30.3713 90.1305 30.8476C90.5046 31.2019 90.7484 31.6611 90.8391 32.1742L89.7223 32.3698C89.6599 32.0126 89.5096 31.7036 89.2545 31.4882C88.9654 31.2416 88.5487 31.1112 87.9846 31.2104C86.9442 31.3918 86.2412 32.401 86.5218 34.0054C86.8025 35.6099 87.823 36.3951 88.8662 36.2109C89.4303 36.1117 89.7789 35.8452 89.9745 35.4994C90.139 35.1989 90.1843 34.853 90.122 34.4959L91.2388 34.3003L91.2445 34.3031ZM67.3335 43.3629C65.5845 43.6719 64.7936 42.8073 64.6547 42.0306L65.7716 41.835C65.8424 42.229 66.3499 42.589 67.1691 42.4445C68.4192 42.2233 68.9947 41.1717 68.6517 39.2384L68.6006 38.9492C68.2803 39.6692 67.6992 40.222 66.9225 40.3581C65.2358 40.6557 63.8213 39.6976 63.4811 37.7756C63.1296 35.7743 64.2125 34.459 65.8311 34.1727C66.6475 34.031 67.3845 34.3598 67.9345 34.9409L67.8551 33.9516L68.7764 33.79L69.7204 39.1477C70.1342 41.4892 69.3292 43.0171 67.3307 43.3686L67.3335 43.3629ZM56.1391 39.3659C55.782 37.3391 56.7514 35.7687 58.4381 35.4738C59.3339 35.3179 60.1049 35.6836 60.6776 36.3299L60.5925 35.2301L61.5138 35.0685L62.676 41.6479L61.7548 41.8095L61.4401 40.7096C61.1226 41.526 60.5302 42.1581 59.6485 42.3141C57.9619 42.6117 56.4992 41.3899 56.1448 39.3631L56.1391 39.3659ZM76.7448 38.2604C76.4387 38.9124 75.8462 39.4651 74.5678 39.6891C72.6203 40.0321 71.1547 38.8132 70.8004 36.7863C70.4432 34.7595 71.3617 33.2004 73.312 32.8545C75.2594 32.5087 76.4812 33.6624 76.7902 35.4143L76.8611 35.8225L71.9513 36.6871C72.2631 38.2207 73.1561 38.9832 74.409 38.765C75.2254 38.6232 75.5259 38.3228 75.7073 37.9684C75.8349 37.7019 75.8661 37.3986 75.8349 37.2285L76.9518 37.0329C77.017 37.4015 76.9348 37.8635 76.7477 38.2632L76.7448 38.2604ZM77.7143 32.2111L78.6356 32.0495L78.9361 33.138C79.2536 32.3897 79.8347 31.7036 80.8495 31.5251C82.5078 31.2331 83.6786 32.1799 83.9904 33.9573L84.6623 37.7728L83.6106 37.9599L82.9387 34.1444C82.7771 33.3053 82.1563 32.2451 80.7617 32.4917C79.4974 32.7156 79.1544 34.065 79.2706 34.8842L79.9282 38.6091L78.8766 38.7962L77.7143 32.2167V32.2111Z" fill="#E6007E"/>
<path d="M68.2463 36.9337C68.0734 35.9472 67.4299 34.8388 66.1373 35.0656C65.0317 35.2612 64.3939 36.3356 64.6122 37.5744C64.8304 38.8103 65.7319 39.6154 66.9055 39.4113C68.0904 39.2015 68.4079 37.9911 68.2605 37.0131L68.2463 36.9337Z" fill="#E6007E"/>
<path d="M73.4706 33.773C72.246 33.9885 71.7216 34.9353 71.852 35.8225L75.5626 35.1677C75.3784 34.2776 74.7604 33.5462 73.4706 33.773Z" fill="#E6007E"/>
<path d="M167.238 13.5387C160.012 13.5387 156.387 16.9602 154.422 19.8573V0H142.037V60H154.422V35.5731C154.422 28.6705 155.771 23.551 162.654 23.551C167.847 23.551 169.911 26.6408 169.911 32.4577V59.9972H182.219V30.6038C182.219 18.4711 175.578 13.533 167.235 13.533L167.238 13.5387Z" fill="black"/>
<path d="M45.9936 0.283447H0V10.412V11.3644H16.81V59.9461H16.878H29.1156H29.1836V11.3644H45.9936V0.283447Z" fill="black"/>
<path d="M102.904 16.7391C102.904 12.8584 107.544 10.4091 113.452 10.4091C121.383 10.4091 124.085 14.6301 124.085 19.1004H136.83C136.83 10.7465 130.922 0.28064 113.455 0.28064C98.2634 0.28064 90.0795 8.46735 90.0795 16.7363C90.0795 19.7638 90.6096 22.2527 91.5337 24.3192C92.5967 26.6919 94.1785 28.5061 96.0891 29.9235C96.3953 30.1502 96.7099 30.3628 97.0331 30.5698C99.1053 31.9049 101.486 32.8517 103.967 33.5831C113.557 36.415 124.595 36.0975 124.595 43.0653C124.595 46.9489 120.374 49.8176 113.962 49.8176C105.523 49.8176 100.713 46.1041 100.713 40.704H87.9705C87.9705 41.5119 88.0243 42.3254 88.1377 43.139C89.2943 51.5893 96.6419 59.9461 113.962 59.9461C129.658 59.9461 137.422 52.1818 137.422 43.0681C137.422 19.4406 102.907 30.7484 102.907 16.7391H102.904Z" fill="black"/>
</g>
<defs>
<clipPath id="clip0_904_56">
<rect width="230" height="60" fill="white"/>
</clipPath>
</defs>
</svg>
